# xmcd
#
# Track frame offsets:
#	150
#	17975
#	35149
#	50823
#	68276
#	82635
#	102525
#	124095
#	141445
#	156110
#	172909
#	189841
#	209264
#	225799
#	246185
#	262289
#	278625
#	292321
#	304749
#	319032
#
# Disc length: 4440 seconds
#
# Revision: 0
# Processed by: cddbd v1.5.2PL0 Copyright (c) Steve Scherf et al.
# Submitted via: audiograbber 1.83.01
#
DISCID=1d115614
DTITLE=So Fresh - Winter 2008
DYEAR=2008
DGENRE=Pop
TTITLE0=Newton Faulkner - Dream Catch Me
TTITLE1=Rihanna - Take a Bow
TTITLE2=Mariah Carey - Touch My Body
TTITLE3=Leona Lewis - Better in Time
TTITLE4=Kelly Rowland - Work
TTITLE5=Jordin Sparks ft Chris Brown - No Air
TTITLE6=Vanessa Amerosi - Perfect
TTITLE7=Brian McFadden - Like Only a Woman Can
TTITLE8=Brittney Spears - Break the Ice
TTITLE9=One Republic - Stop and Stare
TTITLE10=Timbaland ft Keri Hilson Nichole - Scream
TTITLE11=Sara Bareilles - Love Song
TTITLE12=Duffy - Mercy
TTITLE13=Pete Murray - You Pick Me Up
TTITLE14=Rogue Traders - What Youre On
TTITLE15=Ashlee Simpson - Outta My Head Ay Ya Ya
TTITLE16=Delta Goodrem - You Will Only Break My Heart
TTITLE17=PNAU - Baby
TTITLE18=Soulja Boy Tell Em - Yahhhh
TTITLE19=Psycho Teddy - Psycho Teddy
EXTD=
EXTT0=
EXTT1=
EXTT2=
EXTT3=
EXTT4=
EXTT5=
EXTT6=
EXTT7=
EXTT8=
EXTT9=
EXTT10=
EXTT11=
EXTT12=
EXTT13=
EXTT14=
EXTT15=
EXTT16=
EXTT17=
EXTT18=
EXTT19=
PLAYORDER=
